<svg xmlns="http://www.w3.org/2000/svg" xmlns:xlink="http://www.w3.org/1999/xlink" width="390.123" height="386.753" viewBox="0 0 390.123 386.753"><defs><clipPath id="clip-path"><path id="Trac&#xE9;_2856" data-name="Trac&#xE9; 2856" d="M1484.823,395.7h-4.031a3.979,3.979,0,0,0,3.566-2.332h4.031A3.985,3.985,0,0,1,1484.823,395.7Z" fill="none"></path></clipPath><clipPath id="clip-path-2"><path id="Trac&#xE9;_2857" data-name="Trac&#xE9; 2857" d="M1488.389,393.371h-4.031c1.15-1.99,1.732-5.415,1.732-10.18,0-4.831-.523-8.185-1.548-9.974-.988-1.724-2.215-2.561-3.75-2.561h4.031c1.535,0,2.762.836,3.75,2.561,1.025,1.789,1.548,5.143,1.548,9.974C1490.121,387.955,1489.539,391.381,1488.389,393.371Z" fill="none"></path></clipPath><clipPath id="clip-path-3"><path id="Trac&#xE9;_2858" data-name="Trac&#xE9; 2858" d="M1484.859,403.394h-4.031a12.183,12.183,0,0,1-7.179-2.06,13.37,13.37,0,0,1-4.563-6.22c-1.073-2.728-1.62-6.644-1.62-11.637,0-6.989,1.069-12.148,3.182-15.324a11.426,11.426,0,0,1,9.982-5.345h4.03a11.426,11.426,0,0,0-9.982,5.345c-2.113,3.181-3.182,8.335-3.182,15.324,0,4.993.546,8.909,1.62,11.637a13.357,13.357,0,0,0,4.563,6.22A12.186,12.186,0,0,0,1484.859,403.394Z" fill="none"></path></clipPath><clipPath id="clip-path-4"><path id="Trac&#xE9;_2859" data-name="Trac&#xE9; 2859" d="M1456.46,395.7h-4.031a3.979,3.979,0,0,0,3.566-2.332h4.031A3.985,3.985,0,0,1,1456.46,395.7Z" fill="none"></path></clipPath><clipPath id="clip-path-5"><path id="Trac&#xE9;_2860" data-name="Trac&#xE9; 2860" d="M1460.026,393.371h-4.031c1.15-1.99,1.732-5.415,1.732-10.18,0-4.831-.523-8.185-1.548-9.974-.988-1.724-2.215-2.561-3.75-2.561h4.031c1.535,0,2.762.836,3.75,2.561,1.025,1.789,1.548,5.143,1.548,9.974C1461.758,387.955,1461.176,391.381,1460.026,393.371Z" fill="none"></path></clipPath><clipPath id="clip-path-6"><path id="Trac&#xE9;_2861" data-name="Trac&#xE9; 2861" d="M1456.5,403.394h-4.031a12.183,12.183,0,0,1-7.179-2.06,13.328,13.328,0,0,1-4.563-6.22c-1.073-2.728-1.62-6.644-1.62-11.637,0-6.989,1.069-12.148,3.182-15.324a11.426,11.426,0,0,1,9.982-5.345h4.03a11.426,11.426,0,0,0-9.982,5.345c-2.113,3.181-3.182,8.335-3.182,15.324,0,4.993.547,8.909,1.62,11.637a13.327,13.327,0,0,0,4.563,6.22A12.186,12.186,0,0,0,1456.5,403.394Z" fill="none"></path></clipPath><clipPath id="clip-path-7"><path id="Trac&#xE9;_2862" data-name="Trac&#xE9; 2862" d="M1428.1,395.7h-4.031a3.979,3.979,0,0,0,3.566-2.332h4.031A3.985,3.985,0,0,1,1428.1,395.7Z" fill="none"></path></clipPath><clipPath id="clip-path-8"><path id="Trac&#xE9;_2863" data-name="Trac&#xE9; 2863" d="M1431.664,393.371h-4.028c1.15-1.99,1.732-5.415,1.732-10.18,0-4.831-.524-8.185-1.548-9.974-.988-1.724-2.215-2.561-3.75-2.561h4.031c1.535,0,2.762.836,3.75,2.561,1.024,1.789,1.548,5.143,1.548,9.974C1433.4,387.955,1432.814,391.381,1431.664,393.371Z" fill="none"></path></clipPath><clipPath id="clip-path-9"><path id="Trac&#xE9;_2864" data-name="Trac&#xE9; 2864" d="M1428.134,403.394H1424.1a12.183,12.183,0,0,1-7.179-2.06,13.352,13.352,0,0,1-4.563-6.22c-1.073-2.728-1.62-6.644-1.62-11.637,0-6.989,1.069-12.148,3.182-15.324a11.426,11.426,0,0,1,9.982-5.345h4.031a11.426,11.426,0,0,0-9.982,5.345c-2.113,3.181-3.182,8.335-3.182,15.324,0,4.993.546,8.909,1.62,11.637a13.351,13.351,0,0,0,4.563,6.22A12.183,12.183,0,0,0,1428.134,403.394Z" fill="none"></path></clipPath></defs><g id="Illustration-dons" transform="translate(-1276.19 -278.053)"><path id="Trac&#xE9;_2053" data-name="Trac&#xE9; 2053" d="M1368.153,613.127l145.56-10.021,72.273,39.683-160.173,22.017Z" fill="#150c08" opacity="0.2" style="isolation: isolate"></path><ellipse id="Ellipse_88" data-name="Ellipse 88" cx="84.905" cy="10.591" rx="84.905" ry="10.591" transform="translate(1346.674 601.064) rotate(-5.739)" fill="#150c08" opacity="0.2" style="isolation: isolate"></ellipse><path id="Trac&#xE9;_2054" data-name="Trac&#xE9; 2054" d="M1514.247,352.257l-3.923,229.03a28.575,28.575,0,0,1-27.585,28.067l-96.728,3.343a30.12,30.12,0,0,1-31.144-29.058q-.022-.66-.017-1.322l1.243-135.27.438-47.814.414-45.208A33.227,33.227,0,0,1,1390.17,321.1h93.449a30.633,30.633,0,0,1,30.633,30.633C1514.252,351.91,1514.25,352.083,1514.247,352.257Z" fill="#3d3d3b"></path><path id="Trac&#xE9;_2055" data-name="Trac&#xE9; 2055" d="M1365.527,361.158,1363.643,584.4a24.957,24.957,0,0,0,24.746,25.166q.843.008,1.684-.042l94.06-5.563a22.94,22.94,0,0,0,21.579-22.42l4.658-223.035a28.423,28.423,0,0,0-27.823-29.011c-.2,0-.392-.006-.589-.006h-84.49A31.939,31.939,0,0,0,1365.527,361.158Z" fill="#fff"></path><path id="Trac&#xE9;_2056" data-name="Trac&#xE9; 2056" d="M1429.738,576.876v79.539L1379.4,615.13V549.117Z" fill="#a96937"></path><path id="Trac&#xE9;_2057" data-name="Trac&#xE9; 2057" d="M1573.743,554.6l-.083,3.043-.217,7.85-2.049,74.476-141.656,16.447V567.8l131.769-12.082Z" fill="#c0844c"></path><path id="Trac&#xE9;_2058" data-name="Trac&#xE9; 2058" d="M1573.66,557.642l-.217,9.515-143.7,14.2-50.336-26.993v-5.246l50.336,27.759V567.8l131.769-12.082Z" fill="#010101" opacity="0.1" style="isolation: isolate"></path><path id="Trac&#xE9;_2059" data-name="Trac&#xE9; 2059" d="M1427.667,540.84v36.25L1379.4,551.357V521.149Z" fill="#a96937"></path><path id="Trac&#xE9;_2060" data-name="Trac&#xE9; 2060" d="M1379.4,521.149l128.139-1.807,69.221,12.772-149.1,8.727Z" fill="#d2a17d"></path><path id="Trac&#xE9;_2061" data-name="Trac&#xE9; 2061" d="M1576.763,563.315v-31.2l-149.1,8.727v36.25Z" fill="#c0844c"></path><path id="Trac&#xE9;_2062" data-name="Trac&#xE9; 2062" d="M1382.8,440.494l-1,.026c0,5.19,7.875,19.959,17.242,19.959h98.178c4.912,0,8-3.087,8-8l-7.759-33.657c0-5.941-7.277-7.739-13.218-7.671L1392.484,430.7A9.8,9.8,0,0,0,1382.8,440.494Z" fill="#010101" opacity="0.05" style="isolation: isolate"></path><path id="Trac&#xE9;_2063" data-name="Trac&#xE9; 2063" d="M1437.011,532.113l79.114-3.58-4.87-1.581-76.7,3.138Z" fill="#fff"></path><g id="Groupe_988" data-name="Groupe 988"><ellipse id="Ellipse_89" data-name="Ellipse 89" cx="37.304" cy="5.525" rx="37.304" ry="5.525" transform="translate(1293.546 636.298)" fill="#150c08" opacity="0.2" style="isolation: isolate"></ellipse><g id="Groupe_987" data-name="Groupe 987"><g id="Groupe_984" data-name="Groupe 984"><g id="Groupe_983" data-name="Groupe 983"><path id="Trac&#xE9;_2064" data-name="Trac&#xE9; 2064" d="M1346.164,513.79a28.364,28.364,0,0,0,2.884,4.361c2.24,2.806,5.7,6.048,10.033,6.688a10.773,10.773,0,0,0,5.96-.967h.007c5.268-2.339,9.229-7.716,9.229-7.716a4.329,4.329,0,0,0-.591-4.25s-10.637,2.393-11.65,1.886-6.923-17.531-8.329-19.67-6.2-3.25-6.2-3.25Z" fill="#f9dcbe"></path><path id="Trac&#xE9;_2065" data-name="Trac&#xE9; 2065" d="M1349.047,518.152c2.24,2.806,5.7,6.048,10.033,6.688a10.774,10.774,0,0,0,5.96-.967c-.206.027-4.99.367-7.564-3.075-4.6-6.159-3.027-18.364-6.714-19.156C1349.172,501.3,1348.536,515.965,1349.047,518.152Z" fill="#010101" opacity="0.2" style="isolation: isolate"></path><path id="Trac&#xE9;_2066" data-name="Trac&#xE9; 2066" d="M1306.478,628.613s-3.246,2.962-2.612,5.067,3.563,3.508,3.958,6.08,1.979,3.975,3.4,3.975h6.794s1.049-1.81-1.484-2.356-3.488-3.568-3.33-6.375a49.361,49.361,0,0,0-.238-6.548l-5.383-1.247Z" fill="#243862"></path><path id="Trac&#xE9;_2067" data-name="Trac&#xE9; 2067" d="M1333.95,629.871s-1.168,12.549.257,13.25l18.237-.037s0-2.1-2.929-2.572-8.075-2.182-8.945-6S1333.95,629.871,1333.95,629.871Z" fill="#243862"></path><path id="Trac&#xE9;_2068" data-name="Trac&#xE9; 2068" d="M1320.951,539.845c3.753-8.416,6.049-10.832,5.611-13.444-.326-1.944.993-36.249.993-36.249.445-.138,1.338-.262,1.826-.37a4.579,4.579,0,0,0,3.344-2.908,23.337,23.337,0,0,0,1.135-7.74l.481.094,8.083,1.6s-.184,2.544-.189,4.94v.06a4.65,4.65,0,0,0,3.355,4.5c1.021.295,1.909.547,1.909.547a74.108,74.108,0,0,1,3.535,17.179c.567,8.7-5.4,12.487.045,29.883C1356.637,555.7,1318.881,544.495,1320.951,539.845Z" fill="#f6b07f"></path><path id="Trac&#xE9;_2069" data-name="Trac&#xE9; 2069" d="M1342.427,480.829s-.184,2.544-.189,4.94c-4.523-.127-6.914-4.254-7.894-6.54Z" fill="#e7935b"></path><path id="Trac&#xE9;_2070" data-name="Trac&#xE9; 2070" d="M1319.922,505.327a72.723,72.723,0,0,0,0,8.429c.181,3.048,3.264,7.13,3.7,8.14,1.1,2.533,2.335,2.944,2.335,2.944l9.575,2.347,3.366.824,10.617-3.171s4.836-13.5,2.894-21.1a58.337,58.337,0,0,0-4.908-12.874s-8.664,8.483-19.944-.719Z" fill="#f9dcbe"></path><path id="Trac&#xE9;_2071" data-name="Trac&#xE9; 2071" d="M1322.724,515c.18,3.048.461,5.886.9,6.9,1.1,2.533,2.335,2.944,2.335,2.944l9.575,2.347,4.159-1.223s-13.883-2.1-12.344-14.048Z" fill="#010101" opacity="0.2" style="isolation: isolate"></path><path id="Trac&#xE9;_2072" data-name="Trac&#xE9; 2072" d="M1348.841,526.889s5.258,16.365,5.6,21.937-6.156,78.477-6.574,81.045c-.394,2.42-3.4,3.963-3.4,3.963s-8.955,2.464-10.928,1.907a8.307,8.307,0,0,1-3.6-1.7s-.414-53.451,2.119-72.2a296.862,296.862,0,0,0,2.563-34.957Z" fill="#b64053"></path><path id="Trac&#xE9;_2073" data-name="Trac&#xE9; 2073" d="M1322.724,526.068s-4.179,11.094-4.927,18.368-1.173,32.826-2.766,39.917-12.492,20.341-12.492,42.46a4.414,4.414,0,0,0,2.487,1.943c.6.216,10.506,3.51,11.287,3.689a3.438,3.438,0,0,0,3.845-1.825c3.957-7.967,12.506-36.348,13.152-41.681.457-3.774,4.437-28.755,13.117-43.414,2.084-3.519-1.279-17.514-1.279-17.514Z" fill="#e7566b"></path><path id="Trac&#xE9;_2074" data-name="Trac&#xE9; 2074" d="M1349.681,524.362a11.02,11.02,0,0,1-6.3,1.754c-5.008.1-17.419-1.277-17.419-1.277a10.281,10.281,0,0,0-.529,3.168s15.158,3.823,23.94.558A5.551,5.551,0,0,0,1349.681,524.362Z" fill="#2c488c"></path><g id="Groupe_982" data-name="Groupe 982"><path id="Trac&#xE9;_2075" data-name="Trac&#xE9; 2075" d="M1342.3,527.846a2.739,2.739,0,0,0,.782,1.947,2.14,2.14,0,0,0,1.5.64,2.046,2.046,0,0,0,1.043-.287,2.394,2.394,0,0,0,.8-.776h0a2.8,2.8,0,0,0,.44-1.523,2.834,2.834,0,0,0-.162-.957,2.618,2.618,0,0,0-.646-1.014.592.592,0,0,0-.044-.042,2.115,2.115,0,0,0-1.433-.574,2.173,2.173,0,0,0-1.7.863,2.707,2.707,0,0,0-.421.767c-.009.022-.015.044-.024.066h0a2.866,2.866,0,0,0-.136.806C1342.3,527.791,1342.3,527.817,1342.3,527.846Zm.756-.017a2.078,2.078,0,0,1,.228-.94,1.628,1.628,0,0,1,.138-.226h0a1.506,1.506,0,0,1,.76-.578h0a1.262,1.262,0,0,1,.4-.064,1.433,1.433,0,0,1,.173.011h0a1.294,1.294,0,0,1,.385.118,1.639,1.639,0,0,1,.736.743,2.068,2.068,0,0,1,.228.957,1.944,1.944,0,0,1-.655,1.5,1.41,1.41,0,0,1-.431.254,1.319,1.319,0,0,1-.44.077c-.042,0-.083,0-.125-.007h0a1.732,1.732,0,0,1-1.4-1.823Z" fill="#fff"></path></g></g></g><path id="Trac&#xE9;_2076" data-name="Trac&#xE9; 2076" d="M1384.707,519.088c-1.29,1.141-4.714-2.779-5.185-3.3a.268.268,0,0,0-.049-.075l1.042-2.9s4.49-.173,5.234.571S1386.122,517.876,1384.707,519.088Z" fill="#ef9960"></path><g id="Groupe_985" data-name="Groupe 985"><path id="Trac&#xE9;_2077" data-name="Trac&#xE9; 2077" d="M1372.56,504.585l-16.066,20.9,1.306.914,16.263-20.9Z" fill="#6e86a5"></path><path id="Trac&#xE9;_2078" data-name="Trac&#xE9; 2078" d="M1374.064,505.5h16.3L1373.3,526.4h-15.5Z" fill="#92b2de"></path><path id="Trac&#xE9;_2079" data-name="Trac&#xE9; 2079" d="M1372.561,504.585h16.2l.914.914h-15.611Z" fill="#cbdfed"></path><path id="Trac&#xE9;_2080" data-name="Trac&#xE9; 2080" d="M1372.992,504.847h16.059l.261-.262h-16.751Z" fill="#6e86a5"></path></g><path id="Trac&#xE9;_2081" data-name="Trac&#xE9; 2081" d="M1359.752,543.42c.094-.828-.994-.972-1.815-1.114a16.059,16.059,0,0,1-4.606-1.362s3.936.605,3.31-.776c-.114-.251-2.095-.409-4.274-.776a7.693,7.693,0,0,0-3.2.778c-1.544-.474-2.927-1.022-3.375-1.2h0c-.978-.768-2.155-1.7-3.393-2.71a111.444,111.444,0,0,1-8.675-7.649,12.036,12.036,0,0,1-2.552-3.222,34.2,34.2,0,0,1-1.252-5.116c-.21-1.142-.428-2.386-.634-3.7-.388-2.179-.747-4.528-1.13-6.882-.686-4.292-1.466-8.625-2.329-12.015a22.477,22.477,0,0,0-1.839-5.064c-.525-.918-1.091-1.441-1.719-1.447-.1.008-.18.02-.257.032,0,0-3.688.385-4.931,7.472a10.964,10.964,0,0,0-.186,1.252,26.764,26.764,0,0,0-.085,4.539,67.984,67.984,0,0,0,1.223,9.766c.194.938.384,1.9.6,2.868,1.538,7,3.909,13.69,6.421,16.251a3.143,3.143,0,0,0,.3.3,26.16,26.16,0,0,0,4.616,3.066c2.722,1.465,6,2.922,8.933,4.171h.024c1.72.692,3.3,1.335,4.622,1.835,0,0,.215.094.6.241l.176.066a55.338,55.338,0,0,1,6.149,3.073,6.577,6.577,0,0,0,7.554-.338A4.118,4.118,0,0,0,1359.752,543.42Z" fill="#f6b07f"></path><path id="Trac&#xE9;_2082" data-name="Trac&#xE9; 2082" d="M1348.513,539.137l-1.286,5.889a.517.517,0,0,1-.615.4.532.532,0,0,1-.116-.04l-.3-.145c-.736-.354-1.516-.706-2.333-1.06l-.151-.057c-.332-.125-.549-.216-.626-.25-1.1-.416-2.384-.933-3.741-1.479l-.757-.3-.037-.006-.135-.057c-2.451-1.044-6.055-2.616-9.036-4.221a27.035,27.035,0,0,1-4.845-3.227,4.06,4.06,0,0,1-.389-.388c-2.451-2.519-4.964-8.806-6.726-16.832-.157-.7-.3-1.411-.442-2.1q-.078-.4-.161-.789v-.016a69.24,69.24,0,0,1-1.245-9.951,27.656,27.656,0,0,1,.093-4.737v-.026a12.059,12.059,0,0,1,.2-1.324c1.323-7.476,5.376-8.362,5.956-8.451.086-.014.2-.032.356-.044h.1a2.259,2.259,0,0,1,.377.034,3.6,3.6,0,0,1,2.411,2.038,22.98,22.98,0,0,1,1.96,5.358c.751,2.956,1.521,6.921,2.354,12.142q.172,1.05.339,2.1l.414,2.564q.185,1.119.373,2.192v.026c.178,1.132.383,2.332.629,3.671a32.481,32.481,0,0,0,1.192,4.9,10.325,10.325,0,0,0,2.273,2.787,113,113,0,0,0,8.572,7.555c1.162.952,2.274,1.83,3.238,2.588.6.236,1.188.456,1.763.655h0A.518.518,0,0,1,1348.513,539.137Z" fill="#f9dcbe"></path><path id="Trac&#xE9;_2083" data-name="Trac&#xE9; 2083" d="M1346.412,537.884l-12.011-8.527a9.09,9.09,0,0,1-3.815-6.913l-.456-8.285c.123.746.245,1.476.373,2.192v.026c.178,1.132.383,2.332.629,3.672a32.481,32.481,0,0,0,1.192,4.9,10.324,10.324,0,0,0,2.273,2.787,113,113,0,0,0,8.572,7.555C1344.337,536.246,1345.452,537.124,1346.412,537.884Z" fill="#010101" opacity="0.2" style="isolation: isolate"></path><g id="Groupe_986" data-name="Groupe 986"><path id="Trac&#xE9;_2084" data-name="Trac&#xE9; 2084" d="M1351.282,476.986c-1.216,4.115-4.64,9.272-10.186,6.717-6.743-3.108-12.618-14.874-7.858-21.741,3.612-5.21,14.212-6.931,17.934-.235C1352.784,464.626,1352.7,472.19,1351.282,476.986Z" fill="#f6ac75"></path><path id="Trac&#xE9;_2085" data-name="Trac&#xE9; 2085" d="M1328.35,490.1a23.285,23.285,0,0,0,11.382,6.279c6.042,1.356,10.87-4.107,7.761-8.848a3.954,3.954,0,0,0,1.145-3.632c4.445-2.146,6.6-8.991,5.663-18.337-.07-.7-1.171-6.121-1.583-8.066a.748.748,0,0,0-.783-.589c-1.383.075-3.061.652-5.466-.215-6.1-2.2-13.325-2.844-16.891,4.016-3.106,5.975-1.71,12.72.828,18.869a5.911,5.911,0,0,0-.338,3.776,4.212,4.212,0,0,0-2.528,3.2C1326.722,487.514,1327.335,488.982,1328.35,490.1Zm11.351-11.682a29.127,29.127,0,0,1,.343-6.647c.89-3.863,1.742-7.954,5.173-9.9,1.466-.831,4.656-1.953,5.6.22,1.354,3.106,1.274,6.594.851,9.988-.361,2.887-1.3,8.1-3.823,10.31C1344.4,485.422,1339.74,482.2,1339.7,478.422Z" fill="#e7566b"></path><path id="Trac&#xE9;_2086" data-name="Trac&#xE9; 2086" d="M1351.578,464.484a37.746,37.746,0,0,0-5.23.494c-2.492.471-4.631,1.035-4.631,1.035a6.472,6.472,0,0,1,4.7-5.18C1350.746,459.477,1351.537,462.3,1351.578,464.484Z" fill="#b64053"></path><path id="Trac&#xE9;_2087" data-name="Trac&#xE9; 2087" d="M1337.905,465.8s-.107,5.2.168,8.437a19.1,19.1,0,0,0,2.427,6.818s-1.983,1.217-3.143-5.333S1337.905,465.8,1337.905,465.8Z" fill="#b64053"></path><path id="Trac&#xE9;_2088" data-name="Trac&#xE9; 2088" d="M1329.925,467.7s5.143,10.2,7.859,11.779l2.716,1.582a3.723,3.723,0,0,0,2.935,2.312,9.568,9.568,0,0,0,3.874-.561s-.445,1.238-3.527,1.89-5.165-2.015-8.348-5.354S1329.925,467.7,1329.925,467.7Z" fill="#b64053"></path><path id="Trac&#xE9;_2089" data-name="Trac&#xE9; 2089" d="M1330.848,479.488a27.194,27.194,0,0,0,8.49,5.536c4.926,1.916,7.547,0,7.547,0s.037,3.077-6.923,1.227S1330.848,479.488,1330.848,479.488Z" fill="#b64053"></path><path id="Trac&#xE9;_2090" data-name="Trac&#xE9; 2090" d="M1331.073,484.152c.288.073,4.971,3.954,8.762,4.442a13.357,13.357,0,0,0,6.914-1.051s.249,3.939-6.973,2.128S1331.073,484.152,1331.073,484.152Z" fill="#b64053"></path><path id="Trac&#xE9;_2091" data-name="Trac&#xE9; 2091" d="M1328.094,484.908a67.926,67.926,0,0,1,2.744,13.529c.58,6.66.057,27.329-.028,27.769s-3.8.759-9.406-.938-6.273-3.021-10.84-5.134c-3.3-1.527-5.179-.625-5.179-.625s5.664-15.026,9.52-23.115S1328.094,484.908,1328.094,484.908Z" fill="#b64053"></path><path id="Trac&#xE9;_2092" data-name="Trac&#xE9; 2092" d="M1326.436,506.277c-.685,5.01-3.214,8.842-8.733,8.733-3.41-.068-6.622-1.232-10.068-1.006-.045,0-.089.013-.134.016,2-5.113,5.041-12.67,7.4-17.626,3.024-6.342,9.4-9.79,12.015-10.988C1325.209,492.005,1327.344,499.637,1326.436,506.277Z" fill="#e7566b"></path><path id="Trac&#xE9;_2093" data-name="Trac&#xE9; 2093" d="M1327.462,512.238a12.613,12.613,0,0,1-6.9,5.141,27.066,27.066,0,0,1-7.625,1.479s8.48,1.945,11.39-.313S1327.462,512.238,1327.462,512.238Z" fill="#e7566b"></path></g></g></g><g id="Groupe_989" data-name="Groupe 989"><ellipse id="Ellipse_90" data-name="Ellipse 90" cx="37.304" cy="5.525" rx="37.304" ry="5.525" transform="translate(1591.705 641.822)" fill="#150c08" opacity="0.2" style="isolation: isolate"></ellipse><path id="Trac&#xE9;_2094" data-name="Trac&#xE9; 2094" d="M1561.757,516.495c1.686,1.346,3.692-.036,6.272-.9s-.63-3.764-.63-3.764a.745.745,0,0,1-.245-.069,22.693,22.693,0,0,0-5.088-1.514,4.7,4.7,0,0,0-1.355.026C1557.637,510.868,1560.071,515.153,1561.757,516.495Z" fill="#f29052"></path><path id="Trac&#xE9;_2095" data-name="Trac&#xE9; 2095" d="M1561.757,512.481l.968,1.114,3.6.232s.495-1.192.83-2.06a22.7,22.7,0,0,0-5.089-1.514Z" fill="#f6ac75"></path><path id="Trac&#xE9;_2096" data-name="Trac&#xE9; 2096" d="M1560.57,511.21s2.025,1.385,2.079,2.53-.376,2.99-1.165,2.667a4.46,4.46,0,0,1-1.72-3.548A3.468,3.468,0,0,1,1560.57,511.21Z" fill="#f29052"></path><path id="Trac&#xE9;_2097" data-name="Trac&#xE9; 2097" d="M1630.216,473.57s8.934,4.232,10.51,6.321-5.958,3.916-5.958,3.916l-6.057-4.767Z" fill="#2c488c"></path><path id="Trac&#xE9;_2098" data-name="Trac&#xE9; 2098" d="M1567.479,513.841a2.973,2.973,0,0,1-1.989,1.183c-1.111,0-4.624.152-4.91-.493s1.935-2.329,2.9-2.294S1566.689,512.407,1567.479,513.841Z" fill="#f6ac75"></path><path id="Trac&#xE9;_2099" data-name="Trac&#xE9; 2099" d="M1566.2,513.992c-.281-2.2.843-2.636.843-2.636s22.242-5.364,24.118-6.075,17.239-18.645,17.239-18.645,5.857-7.422,11.074-6.157c4.534,1.1,6.475,4.475,7.258,7.752a9.769,9.769,0,0,1-3.954,10.272c-7.4,5.145-22.223,15.3-25.779,16.564-7.914,2.822-29.664,1.894-29.664,1.894A7.009,7.009,0,0,1,1566.2,513.992Z" fill="#2c488c"></path><path id="Trac&#xE9;_2100" data-name="Trac&#xE9; 2100" d="M1597.587,648.963h18.737a1.676,1.676,0,0,0,.4-.113c1.249-.617.885-5.388.743-6.862-.027-.273-.047-.433-.047-.433s-6.531-5.282-7.456-1.27c-.029.125-.063.248-.1.369h0c-1.159,3.753-6.26,5.432-9.2,5.892A3.4,3.4,0,0,0,1597.587,648.963Z" fill="#2e3964"></path><path id="Trac&#xE9;_2101" data-name="Trac&#xE9; 2101" d="M1631.828,477.124s-6.473,5.494-12.894,1.66a21.116,21.116,0,0,1-.454-6.463c.052-.325.1-.64.146-.939.462-2.974.643-4.656.643-4.656h.007c.334-.078,11.23-2.548,11.163-2.2C1628.919,472.521,1631.828,477.124,1631.828,477.124Z" fill="#f6b07f"></path><path id="Trac&#xE9;_2102" data-name="Trac&#xE9; 2102" d="M1629.094,466.265a16.167,16.167,0,0,1-10.468,5.116c.462-2.974.643-4.656.643-4.656h.007C1619.571,466.7,1629.477,465.778,1629.094,466.265Z" fill="#010101" opacity="0.2" style="isolation: isolate"></path><path id="Trac&#xE9;_2103" data-name="Trac&#xE9; 2103" d="M1617.186,466.059s11.009,4.623,13.782-2.277,6.062-10.95-.85-14.193-9.344-1.163-10.829.915S1614.394,464.678,1617.186,466.059Z" fill="#f6b07f"></path><path id="Trac&#xE9;_2104" data-name="Trac&#xE9; 2104" d="M1630.247,465.667c.14.127,2.479,1.3,8.715-7.22a8.213,8.213,0,0,0,.77-7.492c-1.239-3.079-4.586-5.343-9.46-7.145s-8.9-.124-10.569,2.524a8.341,8.341,0,0,1-1.032,1.308,2.907,2.907,0,0,0,2.423,4.858c1.911-.169,3.536-.486,4.316-.089,1.716.875,1.876,3.838,1.857,4.776s.063,1.734,2.479,1.3.487,3.4-.008,4.114C1629.737,462.6,1629.081,464.61,1630.247,465.667Z" fill="#2e3964"></path><path id="Trac&#xE9;_2105" data-name="Trac&#xE9; 2105" d="M1646.659,648.9l7.038.039c1.475.008,3.123-1.46,3.548-4.163s3.466-4.163,4.135-6.373-2.677-5.345-2.677-5.345l-.558-.725-.581-.756-5.582,1.281s-.144,1.327-.24,3.017q-.118,1.932-.044,3.87c.148,2.953-.86,6.126-3.486,6.686S1646.659,648.9,1646.659,648.9Z" fill="#2e3964"></path><path id="Trac&#xE9;_2106" data-name="Trac&#xE9; 2106" d="M1603.127,540.981s-.186,12.525.9,27.473c1.481,20.3,3.258,45.246,3.422,49.97.282,8.2,1.524,21.329,1.524,21.329s3.1,3.134,9.338,1.854a214.579,214.579,0,0,0,7.352-38.5q.04-.488.079-.979c1.586-20.163,4.113-62.625,4.113-62.625Z" fill="#e7566b"></path><path id="Trac&#xE9;_2107" data-name="Trac&#xE9; 2107" d="M1607.03,543.553s-1.987,4.463,1.521,19.033c2.573,10.691,17.116,40.519,17.116,40.519q.04-.487.079-.979c1.586-20.163,4.113-62.625,4.113-62.625Z" fill="#010101" opacity="0.2" style="isolation: isolate"></path><path id="Trac&#xE9;_2108" data-name="Trac&#xE9; 2108" d="M1605.731,540.264s18.536,47.422,30.228,68.641,15.349,27.141,15.349,27.141,6.779-2.669,7.4-4.51c0,0-4.292-40.865-12.145-50.864-4.438-5.65-7.965-22.9-8.179-28.8a81.312,81.312,0,0,0-1.113-10.729Z" fill="#e7566b"></path><path id="Trac&#xE9;_2109" data-name="Trac&#xE9; 2109" d="M1638.8,505.582c-.122,1.9-.288,3.888-.493,5.873-.509,4.519-.983,8.7-1.35,12.413a117.073,117.073,0,0,0-.762,12.315c0,.592-3.678,1.149-8.462,1.634-.908.091-1.855.178-2.826.264-7.981.706-17.532,1.2-19.02,1.117-.221,0,2.388-40.512,2.984-49.716.075-1.18.118-1.847.118-1.847a28.912,28.912,0,0,1,6.41-9.3l3.016-2.771c2.36.62,4.507,1.366,7.112.249,2.854-1.243,4.551-2.566,5-2.194,3.351,2.814,6.742,8.687,7.776,16.127a9.09,9.09,0,0,1,.245,1.531A89.547,89.547,0,0,1,1638.8,505.582Z" fill="#2c488c"></path><path id="Trac&#xE9;_2110" data-name="Trac&#xE9; 2110" d="M1637.378,523.872l-.1,17.272-10.455-.051-23.694-.111,5.609-50.951a2.15,2.15,0,0,1,.13-.549,2.38,2.38,0,0,1,2.519-1.559l6.71.8a6.007,6.007,0,0,1,5.2,4.9l4.267,23.678a10.343,10.343,0,0,0,9.386,6.564C1637.093,523.876,1637.236,523.876,1637.378,523.872Z" fill="#2c488c"></path><path id="Trac&#xE9;_2111" data-name="Trac&#xE9; 2111" d="M1638.8,505.582c-.122,1.9-.288,3.888-.493,5.873-.509,4.519-.983,8.7-1.35,12.413a3.786,3.786,0,0,0,.426,0l-.1,17.272-10.455-.051c.3-1.05.6-2.143.908-3.276,1.267-4.768,2.53-10.187,3.738-15.677,2.858-13,5.38-26.385,6.836-32.4a9.1,9.1,0,0,1,.245,1.531A89.457,89.457,0,0,1,1638.8,505.582Z" fill="#010101" opacity="0.2" style="isolation: isolate"></path><path id="Trac&#xE9;_2112" data-name="Trac&#xE9; 2112" d="M1651.507,538.7a8.99,8.99,0,0,1,.008,3.1c-.323,1.255-1.97,4.756-2.517,4.568-2-.69-.578-4.645-1.246-5.065-.439-.277-.042,1.591-.425,1.98-.462.469-.923-1.3-.995-2.257s1.232-2.65,1.232-2.65Z" fill="#f6ac75"></path><path id="Trac&#xE9;_2113" data-name="Trac&#xE9; 2113" d="M1649.406,539.53c-1.909-.135-2.154-1.029-2.154-1.029s-2.564-22.648-2.969-24.613-15.679-19.973-15.679-19.973-6.4-6.958-4.325-11.909c1.8-4.3,5.445-5.684,8.8-5.939a9.769,9.769,0,0,1,9.516,5.531c3.908,8.121,11.583,24.366,12.272,28.077,1.533,8.261-3.214,29.3-3.214,29.3S1651.145,539.653,1649.406,539.53Z" fill="#2c488c"></path></g><g id="Groupe_991" data-name="Groupe 991"><path id="Trac&#xE9;_2114" data-name="Trac&#xE9; 2114" d="M1508.539,528.877l-2.862.13-13.727.62-24.444,1.109-17.319.781-4.985.225s2.814-19.553.276-33.02c-.888-4.721-2.435-8.7-4.989-10.815-9.844-8.182-12.824,10.815-12.824,10.815-.553-9.311,3.414-13.728,6.88-15.8a14.2,14.2,0,0,1,1.579-.817,11.867,11.867,0,0,1,4.744-.967c1.82,0,5.186,0,9.469-.008,12.074-.012,31.457-.024,44.143,0l3.742.012C1516.571,481.2,1508.539,528.877,1508.539,528.877Z" fill="#92b2de"></path><path id="Trac&#xE9;_2115" data-name="Trac&#xE9; 2115" d="M1445.479,498.723h-17.813s2.98-19,12.824-10.815C1443.043,490.027,1444.591,494,1445.479,498.723Z" fill="#6e86a5"></path><path id="Trac&#xE9;_2116" data-name="Trac&#xE9; 2116" d="M1451.493,491.819c1.176,4.539,6.043,18.278,1.531,39.568l-2.838.13c4.776-20.362-1.192-40.358-1.192-40.358,4.428-3.789,1.342-10.025,1.342-10.025h3.023C1454.923,486.321,1453.692,489.269,1451.493,491.819Z" fill="#6e86a5"></path><path id="Trac&#xE9;_2117" data-name="Trac&#xE9; 2117" d="M1505.677,529.008l-2.317.107c1.259-10.037,3.023-31.288-.691-38.009-2.037-.474-7.452-3.26-10.436-9.974h2.258c3.134,7.428,9.548,7.937,9.548,7.937C1510.45,498.174,1505.677,529.008,1505.677,529.008Z" fill="#6e86a5"></path><path id="Trac&#xE9;_2118" data-name="Trac&#xE9; 2118" d="M1492.234,524.938a38.477,38.477,0,0,1-.284,4.689l-7.965.347-1.926.083-1.066.047-2.6.11-1.9.083-2.072.091-7.973.347c-.079-1.863-.11-3.8-.11-5.8,0-14.252,3.8-25.8,11.521-25.8S1492.234,510.686,1492.234,524.938Z" fill="#fff"></path><g id="Groupe_990" data-name="Groupe 990"><path id="Trac&#xE9;_2119" data-name="Trac&#xE9; 2119" d="M1482.059,527.133v2.925l1.926-.083v-2.842Zm-4.8.016c-1.753,0-2.664,1.519-2.834,3.24l2.072-.091a1.036,1.036,0,0,1,.908-.5,1.481,1.481,0,0,1,.995.414l2.6-.111-.86-1.1c-.772-.968-1.55-1.852-2.884-1.852Z" fill="#6e86a5"></path><path id="Trac&#xE9;_2120" data-name="Trac&#xE9; 2120" d="M1479.288,517.143c-2.641,0-4.9,1.141-4.9,4.14,0,3.016,2.258,4.168,4.9,4.168s4.949-1.153,4.949-4.168C1484.238,518.284,1481.94,517.143,1479.288,517.143Zm0,5.731c-1.176,0-3.023-.257-3.023-1.591,0-1.318,1.847-1.559,3.023-1.559,1.2,0,3.047.241,3.047,1.559C1482.335,522.617,1480.488,522.874,1479.288,522.874Z" fill="#6e86a5"></path><path id="Trac&#xE9;_2121" data-name="Trac&#xE9; 2121" d="M1483.716,507.394l-1.674.557a4.168,4.168,0,0,1,.406,1.906,2.554,2.554,0,0,1-1.318,2.475v-2.791l-1.358-.509v3.612a4.5,4.5,0,0,1-.45.016,2.763,2.763,0,0,1-.489-.028v-3.87l-1.373-.525v3.974a2.58,2.58,0,0,1-1.318-2.427,4.8,4.8,0,0,1,.3-1.788l-1.662-.734a7.2,7.2,0,0,0-.4,2.447c0,2.443,1.149,4.35,3.075,4.993v.856l1.373.537v-1.168a2.436,2.436,0,0,0,.474.043c.146,0,.3,0,.466-.012v.675l1.358.509v-1.38c1.768-.525,3.1-2.1,3.1-4.725A6.151,6.151,0,0,0,1483.716,507.394Z" fill="#6e86a5"></path></g></g><path id="Trac&#xE9;_2122" data-name="Trac&#xE9; 2122" d="M1381.417,422.054V437.88a9.4,9.4,0,0,0,9.4,9.4h98.177a8.894,8.894,0,0,0,8.9-8.893h0V421.822a10.671,10.671,0,0,0-10.671-10.671h-.123l-96,1.1A9.8,9.8,0,0,0,1381.417,422.054Z" fill="#e7566b"></path><path id="Trac&#xE9;_2123" data-name="Trac&#xE9; 2123" d="M1497.846,439.188a8.889,8.889,0,0,1-8.857,8.087h-98.176a9.4,9.4,0,0,1-9.4-9.4V422.054a9.773,9.773,0,0,1,4.152-8,9.621,9.621,0,0,0-1.555,5.253v15.587a9.256,9.256,0,0,0,9.256,9.256h96.689A8.755,8.755,0,0,0,1497.846,439.188Z" fill="#010101" opacity="0.2" style="isolation: isolate"></path><g id="Groupe_1001" data-name="Groupe 1001"><g id="Groupe_992" data-name="Groupe 992"><path id="Trac&#xE9;_2124" data-name="Trac&#xE9; 2124" d="M1396.567,422.917c2.588,0,4.628.98,4.628,3.813,0,2.865-2.222,3.9-4.7,3.9h-1.419V435.3h-2.858v-12.38Zm-.285,5.334c1.068,0,2.056-.334,2.056-1.5,0-1.19-.987-1.417-2.005-1.417h-1.253v2.921h1.2" fill="#fff"></path></g><g id="Groupe_993" data-name="Groupe 993"><path id="Trac&#xE9;_2125" data-name="Trac&#xE9; 2125" d="M1410.871,422.917v2.534h-5.2v2.328h4.913v2.393h-4.913v2.57h5.5V435.3h-8.256v-12.38Z" fill="#fff"></path></g><g id="Groupe_994" data-name="Groupe 994"><path id="Trac&#xE9;_2126" data-name="Trac&#xE9; 2126" d="M1419.644,430l3.092,5.3h-3.343l-2.557-4.914h-.967V435.3h-2.808v-12.38h4.508c2.272,0,4.528.908,4.528,3.741A3.343,3.343,0,0,1,1419.644,430Zm-2.438-1.784c.918,0,2.071-.246,2.071-1.505,0-1.154-1.053-1.38-1.905-1.38h-1.52v2.885h1.353" fill="#fff"></path></g><g id="Groupe_995" data-name="Groupe 995"><path id="Trac&#xE9;_2127" data-name="Trac&#xE9; 2127" d="M1428.337,422.6a5.757,5.757,0,0,1,3.876,1.521l-1.821,2.01a2.82,2.82,0,0,0-2.1-1.066c-.737,0-1.655.262-1.655,1.243,0,.819.7,1.082,1.82,1.449,1.6.544,3.679,1.259,3.679,3.725,0,2.852-2.19,4.128-4.531,4.128a6.084,6.084,0,0,1-4.427-1.784l1.87-1.993a3.458,3.458,0,0,0,2.557,1.311c.871,0,1.639-.347,1.639-1.347,0-.944-.9-1.239-2.457-1.764-1.5-.508-3.027-1.312-3.027-3.551C1423.756,423.74,1426.131,422.6,1428.337,422.6Z" fill="#fff"></path></g><g id="Groupe_996" data-name="Groupe 996"><path id="Trac&#xE9;_2128" data-name="Trac&#xE9; 2128" d="M1439.9,422.586a6.141,6.141,0,0,1,6.453,5.812,6.018,6.018,0,0,1,0,.657,6.445,6.445,0,0,1-12.888.227c0-.076,0-.152,0-.227a6.131,6.131,0,0,1,6.436-6.469Zm0,10.315c1.99,0,3.394-1.606,3.394-3.846a3.47,3.47,0,0,0-3.151-3.764c-.08-.007-.162-.012-.243-.013-2.005,0-3.378,1.61-3.378,3.777,0,2.239,1.388,3.846,3.378,3.846" fill="#fff"></path></g><g id="Groupe_997" data-name="Groupe 997"><path id="Trac&#xE9;_2129" data-name="Trac&#xE9; 2129" d="M1459,422.917V435.3h-3.24L1451,427.2h-.05l.069,8.1h-2.776v-12.38h3.259l4.747,8.079h.05l-.066-8.079Z" fill="#fff"></path></g><g id="Groupe_998" data-name="Groupe 998"><path id="Trac&#xE9;_2130" data-name="Trac&#xE9; 2130" d="M1472.206,422.917V435.3h-3.243l-4.763-8.1h-.05l.066,8.1h-2.773v-12.38h3.259l4.747,8.079h.05l-.069-8.079Z" fill="#fff"></path></g><g id="Groupe_999" data-name="Groupe 999"><path id="Trac&#xE9;_2131" data-name="Trac&#xE9; 2131" d="M1482.6,422.917v2.534h-5.2v2.328h4.913v2.393H1477.4v2.57h5.5V435.3h-8.256v-12.38Z" fill="#fff"></path></g><g id="Groupe_1000" data-name="Groupe 1000"><path id="Trac&#xE9;_2132" data-name="Trac&#xE9; 2132" d="M1488.986,422.6a5.752,5.752,0,0,1,3.876,1.521l-1.821,2.01a2.82,2.82,0,0,0-2.1-1.066c-.736,0-1.655.262-1.655,1.243,0,.819.7,1.082,1.82,1.449,1.6.544,3.679,1.259,3.679,3.725,0,2.852-2.19,4.128-4.531,4.128a6.084,6.084,0,0,1-4.427-1.784l1.87-1.993a3.449,3.449,0,0,0,2.557,1.311c.871,0,1.639-.347,1.639-1.347,0-.944-.9-1.239-2.457-1.764-1.5-.508-3.027-1.312-3.027-3.551C1484.405,423.74,1486.78,422.6,1488.986,422.6Z" fill="#fff"></path></g></g><g id="Groupe_1002" data-name="Groupe 1002" opacity="0.05"><path id="Trac&#xE9;_2133" data-name="Trac&#xE9; 2133" d="M1407,369.083h-10.641l-.148.248-11.878,3.66-1.84,3.573,8.928,1.864a4.431,4.431,0,0,1,3.07,6.293l-3.107,6.313-9.963,12.363,7.319,4.381h32.958l-8.719-4.381V387.04Z" fill="#010101"></path><path id="Trac&#xE9;_2134" data-name="Trac&#xE9; 2134" d="M1503.28,376.672a13.363,13.363,0,0,0-4.639-6.424,12.166,12.166,0,0,0-7.144-2.112h-4.03c-.28,0-.557.009-.831.025-.09,0-.177.015-.267.022-.181.015-.362.029-.54.049-.1.013-.206.03-.309.044-.16.024-.32.047-.477.076-.107.019-.212.043-.318.065-.15.031-.3.065-.445.1-.048.013-.1.021-.146.033s-.1.033-.157.049q-.245.069-.486.148c-.1.032-.188.063-.281.1-.168.06-.333.127-.5.194-.078.032-.157.062-.234.1-.234.1-.464.215-.69.335l-.012.006c-.23.123-.453.256-.674.4l-.049.029c-.139.089-.276.184-.412.28-.027.019-.055.036-.081.055-.181.13-.358.267-.533.409-.051.042-.1.088-.152.131-.123.1-.243.208-.362.316l-.185.176c-.1.1-.21.2-.312.309l-.188.2c-.1.107-.194.218-.3.331-.058.068-.118.135-.175.2-.1.124-.2.253-.3.383-.049.062-.1.122-.145.186-.146.194-.291.394-.428.6a16.282,16.282,0,0,0-2.045,4.825q-.237-.874-.521-1.634a13.363,13.363,0,0,0-4.639-6.424,12.166,12.166,0,0,0-7.144-2.112H1459.1c-.28,0-.557.009-.83.025-.09.006-.178.015-.267.022-.181.015-.363.029-.541.05-.1.012-.206.029-.309.043-.16.024-.32.047-.477.076-.107.02-.212.043-.318.065-.15.031-.3.065-.445.1-.049.013-.1.021-.146.033s-.1.033-.157.049c-.163.046-.325.1-.486.149-.1.031-.188.062-.281.1-.168.06-.333.127-.5.194-.078.033-.157.062-.235.1-.235.105-.467.217-.693.338h-.008c-.23.122-.453.255-.674.395l-.049.029c-.139.09-.275.184-.41.279l-.082.056c-.181.13-.358.266-.532.41-.052.041-.1.087-.153.13-.121.1-.243.208-.362.317-.062.057-.123.116-.185.175q-.157.153-.312.309c-.065.065-.127.13-.187.2-.1.108-.2.219-.3.332-.058.067-.117.134-.174.2-.1.125-.206.254-.306.389-.048.061-.1.121-.142.184-.146.194-.291.394-.428.6a16.309,16.309,0,0,0-2.047,4.829q-.236-.875-.524-1.638a13.334,13.334,0,0,0-4.634-6.424,12.165,12.165,0,0,0-7.144-2.112h-4.03c-.28,0-.557.009-.83.025-.091.006-.178.015-.268.022-.181.015-.362.029-.541.05-.1.012-.206.029-.309.043-.16.024-.32.047-.477.076-.107.02-.212.043-.318.065-.15.031-.3.065-.445.1-.049.013-.1.021-.146.033s-.1.033-.157.049q-.245.069-.486.149c-.1.031-.188.062-.281.1-.168.06-.333.127-.5.194-.078.032-.157.062-.234.1-.235.1-.466.216-.693.338h-.009c-.23.122-.454.255-.675.4-.016.011-.033.019-.049.029-.139.09-.275.184-.41.279l-.083.057q-.272.193-.531.409c-.052.041-.1.087-.153.13-.121.1-.243.208-.362.317-.062.057-.123.116-.184.176-.106.1-.21.2-.313.309-.065.064-.127.129-.187.194-.1.108-.2.219-.3.331-.058.068-.117.134-.174.2-.1.125-.2.254-.306.384-.048.062-.1.122-.144.185-.146.194-.291.394-.427.6-2.112,3.182-8.941,8.335-8.941,15.324,0,4.994,6.309,8.909,7.386,11.638a13.353,13.353,0,0,0,4.562,6.219,10.716,10.716,0,0,0,3.257,1.544,14.24,14.24,0,0,0,3.923.517h4.025a11.794,11.794,0,0,0,7.094-2.051,13.679,13.679,0,0,0,4.47-6.363c.179-.469.341-.972.49-1.5a16.837,16.837,0,0,0,.542,1.636,13.33,13.33,0,0,0,4.562,6.22,10.708,10.708,0,0,0,3.249,1.558,14.167,14.167,0,0,0,3.923.517h4.031a11.792,11.792,0,0,0,7.094-2.05,13.682,13.682,0,0,0,4.47-6.364c.179-.468.342-.971.491-1.5a16.741,16.741,0,0,0,.542,1.634,13.358,13.358,0,0,0,4.562,6.219,10.736,10.736,0,0,0,3.257,1.543,14.166,14.166,0,0,0,3.923.517h4.031a11.789,11.789,0,0,0,7.093-2.05,13.674,13.674,0,0,0,4.471-6.363c1.083-2.832,1.628-6.826,1.628-11.868C1504.88,383.455,1504.342,379.493,1503.28,376.672Zm-69.164,22.583c-.041.059-.085.107-.128.163-.083.107-.164.218-.251.315-.053.061-.11.109-.165.165-.081.08-.158.166-.242.238-.06.052-.124.1-.185.141-.082.064-.164.131-.248.185h-.006a5.44,5.44,0,0,1-1.787-1.915c-1.038-1.724-1.567-4.956-1.567-9.592a36.029,36.029,0,0,1,.7-8.19,7.128,7.128,0,0,1,1.909-3.737,4.514,4.514,0,0,1,.694-.5,5.5,5.5,0,0,1,1.814,2.01c1.024,1.79,1.548,5.144,1.548,9.974,0,4.762-.583,8.19-1.733,10.18-.117.2-.234.386-.356.558Zm28.363,0c-.041.059-.086.107-.129.163-.082.108-.164.219-.25.315-.053.061-.109.109-.165.165-.08.08-.158.166-.242.238-.06.052-.124.1-.185.142-.082.063-.164.13-.248.185h-.006a5.439,5.439,0,0,1-1.787-1.915c-1.038-1.724-1.567-4.956-1.567-9.592a36.029,36.029,0,0,1,.7-8.19,7.128,7.128,0,0,1,1.909-3.737,4.518,4.518,0,0,1,.694-.5,5.5,5.5,0,0,1,1.814,2.01c1.024,1.79,1.548,5.144,1.548,9.974,0,4.762-.583,8.19-1.733,10.18-.117.2-.234.385-.356.557Zm28.363,0c-.04.058-.084.1-.125.159-.084.109-.166.22-.254.318-.053.061-.11.109-.165.165-.08.08-.158.166-.242.238-.06.052-.124.1-.186.142-.082.063-.163.13-.248.185h-.006a5.441,5.441,0,0,1-1.787-1.915c-1.038-1.724-1.567-4.956-1.567-9.592a36.029,36.029,0,0,1,.7-8.19,7.128,7.128,0,0,1,1.909-3.737,4.519,4.519,0,0,1,.694-.5,5.5,5.5,0,0,1,1.814,2.01c1.024,1.79,1.548,5.144,1.548,9.974,0,4.762-.583,8.19-1.733,10.18-.116.2-.234.386-.353.558Zm-.983-31.022h0c-.1.013-.206.03-.308.044h0c.1-.015.2-.032.3-.045Zm.541-.049h0c.09-.007.177-.017.266-.022h0c-.092,0-.179.014-.269.021Z" fill="#010101"></path></g><g id="Groupe_1044" data-name="Groupe 1044"><g id="Groupe_1021" data-name="Groupe 1021"><g id="Groupe_1013" data-name="Groupe 1013"><path id="Trac&#xE9;_2140" data-name="Trac&#xE9; 2140" d="M1484.823,395.7h-4.031a3.979,3.979,0,0,0,3.566-2.332h4.031A3.985,3.985,0,0,1,1484.823,395.7Z" fill="#b64053"></path><g id="Groupe_1232" data-name="Groupe 1232"><g id="Groupe_1231" data-name="Groupe 1231" clip-path="url(#clip-path)"><g id="Groupe_1012" data-name="Groupe 1012"><g id="Groupe_1011" data-name="Groupe 1011"><path id="Trac&#xE9;_2141" data-name="Trac&#xE9; 2141" d="M1484.823,395.7h-4.031a3.862,3.862,0,0,0,1-.125h4.034a3.861,3.861,0,0,1-1,.125" fill="#b64053"></path><path id="Trac&#xE9;_2142" data-name="Trac&#xE9; 2142" d="M1485.82,395.577h-4.03a3.463,3.463,0,0,0,.982-.432h4.031a3.463,3.463,0,0,1-.982.432" fill="#b64053"></path><path id="Trac&#xE9;_2143" data-name="Trac&#xE9; 2143" d="M1486.8,395.145h-4.031a4.972,4.972,0,0,0,1.586-1.774h4.031a4.981,4.981,0,0,1-1.586,1.774" fill="#b64053"></path></g></g></g></g></g><g id="Groupe_1016" data-name="Groupe 1016"><path id="Trac&#xE9;_2145" data-name="Trac&#xE9; 2145" d="M1488.389,393.371h-4.031c1.15-1.99,1.732-5.415,1.732-10.18,0-4.831-.523-8.185-1.548-9.974-.988-1.724-2.215-2.561-3.75-2.561h4.031c1.535,0,2.762.836,3.75,2.561,1.025,1.789,1.548,5.143,1.548,9.974C1490.121,387.955,1489.539,391.381,1488.389,393.371Z" fill="#b64053"></path><g id="Groupe_1234" data-name="Groupe 1234"><g id="Groupe_1233" data-name="Groupe 1233" clip-path="url(#clip-path-2)"><g id="Groupe_1015" data-name="Groupe 1015"><g id="Groupe_1014" data-name="Groupe 1014"><path id="Trac&#xE9;_2146" data-name="Trac&#xE9; 2146" d="M1488.389,393.371h-4.031c1.15-1.99,1.732-5.415,1.732-10.18,0-4.831-.523-8.185-1.548-9.974-.988-1.724-2.215-2.561-3.75-2.561h4.031c1.535,0,2.762.836,3.75,2.561,1.025,1.789,1.548,5.143,1.548,9.974,0,4.762-.583,8.19-1.732,10.18" fill="#b64053"></path></g></g></g></g></g><g id="Groupe_1019" data-name="Groupe 1019"><path id="Trac&#xE9;_2148" data-name="Trac&#xE9; 2148" d="M1484.859,403.394h-4.031a12.183,12.183,0,0,1-7.179-2.06,13.37,13.37,0,0,1-4.563-6.22c-1.073-2.728-1.62-6.644-1.62-11.637,0-6.989,1.069-12.148,3.182-15.324a11.426,11.426,0,0,1,9.982-5.345h4.03a11.426,11.426,0,0,0-9.982,5.345c-2.113,3.181-3.182,8.335-3.182,15.324,0,4.993.546,8.909,1.62,11.637a13.357,13.357,0,0,0,4.563,6.22A12.186,12.186,0,0,0,1484.859,403.394Z" fill="#b64053"></path><g id="Groupe_1236" data-name="Groupe 1236"><g id="Groupe_1235" data-name="Groupe 1235" clip-path="url(#clip-path-3)"><g id="Groupe_1018" data-name="Groupe 1018"><g id="Groupe_1017" data-name="Groupe 1017"><path id="Trac&#xE9;_2149" data-name="Trac&#xE9; 2149" d="M1484.859,403.4h-4.031a12.183,12.183,0,0,1-7.179-2.06,13.37,13.37,0,0,1-4.563-6.22c-1.073-2.728-1.62-6.644-1.62-11.637,0-6.989,1.069-12.148,3.182-15.324a12.337,12.337,0,0,1,3.571-3.578h4.031a12.337,12.337,0,0,0-3.571,3.578c-2.113,3.181-3.182,8.335-3.182,15.324,0,4.993.546,8.909,1.62,11.637a13.357,13.357,0,0,0,4.563,6.22,12.183,12.183,0,0,0,7.179,2.06" fill="#b64053"></path><path id="Trac&#xE9;_2150" data-name="Trac&#xE9; 2150" d="M1478.25,364.574h-4.031a10.846,10.846,0,0,1,3.078-1.35h4.032a10.847,10.847,0,0,0-3.078,1.35" fill="#b64053"></path><path id="Trac&#xE9;_2151" data-name="Trac&#xE9; 2151" d="M1481.328,363.224H1477.3a12.881,12.881,0,0,1,3.333-.417h4.03a12.875,12.875,0,0,0-3.333.417" fill="#b64053"></path></g></g></g></g></g><g id="Groupe_1020" data-name="Groupe 1020"><path id="Trac&#xE9;_2153" data-name="Trac&#xE9; 2153" d="M1496.444,371.343c1.069,2.818,1.6,6.784,1.6,11.774,0,5.042-.546,9.037-1.629,11.867a13.667,13.667,0,0,1-4.47,6.363,11.784,11.784,0,0,1-7.094,2.051,12.185,12.185,0,0,1-7.179-2.06,13.371,13.371,0,0,1-4.563-6.22c-1.073-2.728-1.619-6.644-1.619-11.638,0-6.988,1.068-12.147,3.181-15.323a11.425,11.425,0,0,1,9.982-5.345,12.16,12.16,0,0,1,7.144,2.112A13.369,13.369,0,0,1,1496.444,371.343Zm-8.055,22.028c1.15-1.99,1.732-5.415,1.732-10.18,0-4.831-.523-8.185-1.548-9.974-.988-1.724-2.215-2.561-3.75-2.561a4.1,4.1,0,0,0-2.789,1.047,7.134,7.134,0,0,0-1.908,3.737,36.019,36.019,0,0,0-.7,8.19c0,4.639.528,7.871,1.567,9.591a4.351,4.351,0,0,0,3.831,2.481,3.984,3.984,0,0,0,3.566-2.332" fill="#e7566b"></path></g></g><g id="Groupe_1032" data-name="Groupe 1032"><g id="Groupe_1024" data-name="Groupe 1024"><path id="Trac&#xE9;_2154" data-name="Trac&#xE9; 2154" d="M1456.46,395.7h-4.031a3.979,3.979,0,0,0,3.566-2.332h4.031A3.985,3.985,0,0,1,1456.46,395.7Z" fill="#b64053"></path><g id="Groupe_1238" data-name="Groupe 1238"><g id="Groupe_1237" data-name="Groupe 1237" clip-path="url(#clip-path-4)"><g id="Groupe_1023" data-name="Groupe 1023"><g id="Groupe_1022" data-name="Groupe 1022"><path id="Trac&#xE9;_2155" data-name="Trac&#xE9; 2155" d="M1456.46,395.7h-4.031a3.856,3.856,0,0,0,1-.125h4.03a3.849,3.849,0,0,1-1,.125" fill="#b64053"></path><path id="Trac&#xE9;_2156" data-name="Trac&#xE9; 2156" d="M1457.457,395.577h-4.03a3.494,3.494,0,0,0,.982-.433h4.031a3.492,3.492,0,0,1-.982.433" fill="#b64053"></path><path id="Trac&#xE9;_2157" data-name="Trac&#xE9; 2157" d="M1458.44,395.144h-4.031a4.969,4.969,0,0,0,1.586-1.773h4.031a4.968,4.968,0,0,1-1.586,1.773" fill="#b64053"></path></g></g></g></g></g><g id="Groupe_1027" data-name="Groupe 1027"><path id="Trac&#xE9;_2159" data-name="Trac&#xE9; 2159" d="M1460.026,393.371h-4.031c1.15-1.99,1.732-5.415,1.732-10.18,0-4.831-.523-8.185-1.548-9.974-.988-1.724-2.215-2.561-3.75-2.561h4.031c1.535,0,2.762.836,3.75,2.561,1.025,1.789,1.548,5.143,1.548,9.974C1461.758,387.955,1461.176,391.381,1460.026,393.371Z" fill="#b64053"></path><g id="Groupe_1240" data-name="Groupe 1240"><g id="Groupe_1239" data-name="Groupe 1239" clip-path="url(#clip-path-5)"><g id="Groupe_1026" data-name="Groupe 1026"><g id="Groupe_1025" data-name="Groupe 1025"><path id="Trac&#xE9;_2160" data-name="Trac&#xE9; 2160" d="M1460.026,393.371h-4.031c1.15-1.99,1.732-5.415,1.732-10.18,0-4.831-.523-8.185-1.548-9.974-.988-1.724-2.215-2.561-3.75-2.561h4.031c1.535,0,2.762.836,3.75,2.561,1.025,1.789,1.548,5.143,1.548,9.974,0,4.762-.583,8.19-1.732,10.18" fill="#b64053"></path></g></g></g></g></g><g id="Groupe_1030" data-name="Groupe 1030"><path id="Trac&#xE9;_2162" data-name="Trac&#xE9; 2162" d="M1456.5,403.394h-4.031a12.183,12.183,0,0,1-7.179-2.06,13.328,13.328,0,0,1-4.563-6.22c-1.073-2.728-1.62-6.644-1.62-11.637,0-6.989,1.069-12.148,3.182-15.324a11.426,11.426,0,0,1,9.982-5.345h4.03a11.426,11.426,0,0,0-9.982,5.345c-2.113,3.181-3.182,8.335-3.182,15.324,0,4.993.547,8.909,1.62,11.637a13.327,13.327,0,0,0,4.563,6.22A12.186,12.186,0,0,0,1456.5,403.394Z" fill="#b64053"></path><g id="Groupe_1242" data-name="Groupe 1242"><g id="Groupe_1241" data-name="Groupe 1241" clip-path="url(#clip-path-6)"><g id="Groupe_1029" data-name="Groupe 1029"><g id="Groupe_1028" data-name="Groupe 1028"><path id="Trac&#xE9;_2163" data-name="Trac&#xE9; 2163" d="M1456.5,403.4h-4.031a12.183,12.183,0,0,1-7.179-2.06,13.328,13.328,0,0,1-4.563-6.22c-1.073-2.728-1.62-6.644-1.62-11.637,0-6.989,1.069-12.148,3.182-15.324a12.335,12.335,0,0,1,3.571-3.578h4.031a12.335,12.335,0,0,0-3.571,3.578c-2.113,3.181-3.182,8.335-3.182,15.324,0,4.993.546,8.909,1.62,11.637a13.327,13.327,0,0,0,4.563,6.22,12.183,12.183,0,0,0,7.179,2.06" fill="#b64053"></path><path id="Trac&#xE9;_2164" data-name="Trac&#xE9; 2164" d="M1449.887,364.574h-4.031a10.847,10.847,0,0,1,3.078-1.35h4.031a10.847,10.847,0,0,0-3.078,1.35" fill="#b64053"></path><path id="Trac&#xE9;_2165" data-name="Trac&#xE9; 2165" d="M1452.965,363.224h-4.031a12.881,12.881,0,0,1,3.333-.417h4.031a12.875,12.875,0,0,0-3.333.417" fill="#b64053"></path></g></g></g></g></g><g id="Groupe_1031" data-name="Groupe 1031"><path id="Trac&#xE9;_2167" data-name="Trac&#xE9; 2167" d="M1468.081,371.343c1.06,2.818,1.6,6.784,1.6,11.774,0,5.042-.546,9.037-1.629,11.867a13.666,13.666,0,0,1-4.47,6.363,11.783,11.783,0,0,1-7.094,2.051,12.183,12.183,0,0,1-7.179-2.06,13.327,13.327,0,0,1-4.563-6.22c-1.073-2.728-1.62-6.644-1.62-11.638,0-6.988,1.069-12.147,3.182-15.323a11.425,11.425,0,0,1,9.982-5.345,12.161,12.161,0,0,1,7.144,2.112A13.369,13.369,0,0,1,1468.081,371.343Zm-8.055,22.028c1.15-1.99,1.732-5.415,1.732-10.18,0-4.831-.524-8.185-1.548-9.974-.988-1.724-2.215-2.561-3.75-2.561a4.1,4.1,0,0,0-2.789,1.047,7.135,7.135,0,0,0-1.908,3.737,36.026,36.026,0,0,0-.7,8.19c0,4.639.529,7.871,1.566,9.591a4.354,4.354,0,0,0,3.832,2.481,3.985,3.985,0,0,0,3.566-2.332" fill="#e7566b"></path></g></g><g id="Groupe_1043" data-name="Groupe 1043"><g id="Groupe_1035" data-name="Groupe 1035"><path id="Trac&#xE9;_2168" data-name="Trac&#xE9; 2168" d="M1428.1,395.7h-4.031a3.979,3.979,0,0,0,3.566-2.332h4.031A3.985,3.985,0,0,1,1428.1,395.7Z" fill="#b64053"></path><g id="Groupe_1244" data-name="Groupe 1244"><g id="Groupe_1243" data-name="Groupe 1243" clip-path="url(#clip-path-7)"><g id="Groupe_1034" data-name="Groupe 1034"><g id="Groupe_1033" data-name="Groupe 1033"><path id="Trac&#xE9;_2169" data-name="Trac&#xE9; 2169" d="M1428.1,395.7h-4.031a3.855,3.855,0,0,0,1-.125h4.028a3.862,3.862,0,0,1-1,.125" fill="#b64053"></path><path id="Trac&#xE9;_2170" data-name="Trac&#xE9; 2170" d="M1429.095,395.577h-4.03a3.462,3.462,0,0,0,.982-.432h4.031a3.462,3.462,0,0,1-.982.432" fill="#b64053"></path><path id="Trac&#xE9;_2171" data-name="Trac&#xE9; 2171" d="M1430.078,395.145h-4.031a4.972,4.972,0,0,0,1.586-1.774h4.031a4.981,4.981,0,0,1-1.586,1.774" fill="#b64053"></path></g></g></g></g></g><g id="Groupe_1038" data-name="Groupe 1038"><path id="Trac&#xE9;_2173" data-name="Trac&#xE9; 2173" d="M1431.664,393.371h-4.028c1.15-1.99,1.732-5.415,1.732-10.18,0-4.831-.524-8.185-1.548-9.974-.988-1.724-2.215-2.561-3.75-2.561h4.031c1.535,0,2.762.836,3.75,2.561,1.024,1.789,1.548,5.143,1.548,9.974C1433.4,387.955,1432.814,391.381,1431.664,393.371Z" fill="#b64053"></path><g id="Groupe_1246" data-name="Groupe 1246"><g id="Groupe_1245" data-name="Groupe 1245" clip-path="url(#clip-path-8)"><g id="Groupe_1037" data-name="Groupe 1037"><g id="Groupe_1036" data-name="Groupe 1036"><path id="Trac&#xE9;_2174" data-name="Trac&#xE9; 2174" d="M1431.664,393.371h-4.028c1.15-1.99,1.732-5.415,1.732-10.18,0-4.831-.524-8.185-1.548-9.974-.988-1.724-2.215-2.561-3.75-2.561h4.031c1.535,0,2.762.836,3.75,2.561,1.024,1.789,1.548,5.143,1.548,9.974,0,4.762-.583,8.19-1.732,10.18" fill="#b64053"></path></g></g></g></g></g><g id="Groupe_1041" data-name="Groupe 1041"><path id="Trac&#xE9;_2176" data-name="Trac&#xE9; 2176" d="M1428.134,403.394H1424.1a12.183,12.183,0,0,1-7.179-2.06,13.352,13.352,0,0,1-4.563-6.22c-1.073-2.728-1.62-6.644-1.62-11.637,0-6.989,1.069-12.148,3.182-15.324a11.426,11.426,0,0,1,9.982-5.345h4.031a11.426,11.426,0,0,0-9.982,5.345c-2.113,3.181-3.182,8.335-3.182,15.324,0,4.993.546,8.909,1.62,11.637a13.351,13.351,0,0,0,4.563,6.22A12.183,12.183,0,0,0,1428.134,403.394Z" fill="#b64053"></path><g id="Groupe_1248" data-name="Groupe 1248"><g id="Groupe_1247" data-name="Groupe 1247" clip-path="url(#clip-path-9)"><g id="Groupe_1040" data-name="Groupe 1040"><g id="Groupe_1039" data-name="Groupe 1039"><path id="Trac&#xE9;_2177" data-name="Trac&#xE9; 2177" d="M1428.134,403.4H1424.1a12.183,12.183,0,0,1-7.179-2.06,13.357,13.357,0,0,1-4.563-6.22c-1.073-2.728-1.62-6.644-1.62-11.637,0-6.989,1.069-12.148,3.182-15.324a12.335,12.335,0,0,1,3.571-3.578h4.031a12.323,12.323,0,0,0-3.571,3.578c-2.113,3.181-3.182,8.335-3.182,15.324,0,4.993.546,8.909,1.62,11.637a13.351,13.351,0,0,0,4.563,6.22,12.183,12.183,0,0,0,7.179,2.06" fill="#b64053"></path><path id="Trac&#xE9;_2178" data-name="Trac&#xE9; 2178" d="M1421.525,364.574h-4.031a10.846,10.846,0,0,1,3.078-1.35h4.031a10.844,10.844,0,0,0-3.078,1.35" fill="#b64053"></path><path id="Trac&#xE9;_2179" data-name="Trac&#xE9; 2179" d="M1424.6,363.224h-4.031a12.881,12.881,0,0,1,3.333-.417h4.03a12.875,12.875,0,0,0-3.333.417" fill="#b64053"></path></g></g></g></g></g><g id="Groupe_1042" data-name="Groupe 1042"><path id="Trac&#xE9;_2181" data-name="Trac&#xE9; 2181" d="M1439.715,371.343c1.069,2.818,1.606,6.784,1.606,11.774,0,5.042-.55,9.037-1.629,11.867a13.667,13.667,0,0,1-4.47,6.363,11.784,11.784,0,0,1-7.094,2.051,12.183,12.183,0,0,1-7.179-2.06,13.351,13.351,0,0,1-4.563-6.22c-1.073-2.728-1.62-6.644-1.62-11.638,0-6.988,1.069-12.147,3.182-15.323a11.425,11.425,0,0,1,9.982-5.345,12.16,12.16,0,0,1,7.144,2.112A13.333,13.333,0,0,1,1439.715,371.343Zm-8.051,22.028c1.15-1.99,1.732-5.415,1.732-10.18,0-4.831-.524-8.185-1.548-9.974-.988-1.724-2.215-2.561-3.75-2.561a4.1,4.1,0,0,0-2.789,1.047,7.134,7.134,0,0,0-1.908,3.737,36.012,36.012,0,0,0-.7,8.19c0,4.639.528,7.871,1.566,9.591a4.354,4.354,0,0,0,3.832,2.481,3.986,3.986,0,0,0,3.566-2.332" fill="#e7566b"></path></g></g><g id="Groupe_1252" data-name="Groupe 1252" style="isolation: isolate"><g id="Groupe_1249" data-name="Groupe 1249"><path id="Trac&#xE9;_2865" data-name="Trac&#xE9; 2865" d="M1398.921,396.426h0Z" fill="#983b47"></path></g><g id="Groupe_1250" data-name="Groupe 1250"><path id="Trac&#xE9;_2866" data-name="Trac&#xE9; 2866" d="M1403.687,371.352a5.317,5.317,0,0,0-3.9-1.5h-4.235a5.316,5.316,0,0,1,3.9,1.5,5.089,5.089,0,0,1,1.516,3.787,10.626,10.626,0,0,1-1.463,4.932,35.8,35.8,0,0,1-5.881,7.233l-12.207,12.489v3.6h4.235v-3.6l12.206-12.489a35.766,35.766,0,0,0,5.881-7.233,10.628,10.628,0,0,0,1.464-4.932A5.089,5.089,0,0,0,1403.687,371.352Z" fill="#b64053"></path><path id="Trac&#xE9;_2867" data-name="Trac&#xE9; 2867" d="M1390.74,366.48a12.905,12.905,0,0,1,.97-.867c.112-.091.232-.166.346-.252.228-.171.453-.345.69-.5.144-.093.3-.169.443-.256.219-.129.434-.263.661-.378.162-.082.334-.148.5-.224.222-.1.44-.206.669-.293.123-.047.253-.081.378-.124.3-.1.6-.206.918-.289.169-.045.345-.077.518-.115.28-.063.56-.125.85-.171.273-.044.553-.076.834-.106.139-.014.276-.034.417-.045.436-.034.88-.054,1.336-.054h-4.234c-.456,0-.9.02-1.337.054-.141.011-.277.031-.416.045-.225.023-.452.041-.671.073-.057.008-.108.024-.164.033-.289.046-.569.108-.848.17-.174.039-.351.071-.52.116-.313.083-.616.185-.917.289-.111.038-.228.065-.338.106-.014.005-.027.013-.04.018-.23.087-.448.193-.67.293-.167.076-.338.142-.5.224-.227.115-.442.249-.661.378-.147.087-.3.163-.442.256-.238.154-.463.328-.691.5-.114.086-.234.161-.346.252a12.905,12.905,0,0,0-.97.867q-3.725,3.673-4.016,10.084h4.235Q1387.024,370.148,1390.74,366.48Z" fill="#b64053"></path></g><g id="Groupe_1251" data-name="Groupe 1251"><path id="Trac&#xE9;_2868" data-name="Trac&#xE9; 2868" d="M1400.272,362.807a12.833,12.833,0,0,1,6.334,1.522,11.312,11.312,0,0,1,4.4,4.39,11.547,11.547,0,0,1,1.646,5.825,17.29,17.29,0,0,1-1.995,7.591,41.487,41.487,0,0,1-7.31,9.612l-4.426,4.679h14.054V403.4h-27.323v-3.6l12.206-12.489a35.766,35.766,0,0,0,5.881-7.233,10.628,10.628,0,0,0,1.464-4.932,5.089,5.089,0,0,0-1.516-3.787,5.317,5.317,0,0,0-3.9-1.5,5.156,5.156,0,0,0-4.017,1.811,7.44,7.44,0,0,0-1.716,4.9h-7.327q.3-6.416,4.016-10.084A12.968,12.968,0,0,1,1400.272,362.807Z" fill="#e7566b"></path></g></g></g><g id="Groupe_1057" data-name="Groupe 1057"><g id="Groupe_1045" data-name="Groupe 1045"><path id="Trac&#xE9;_2182" data-name="Trac&#xE9; 2182" d="M1465.119,588.9c6.867-.656,13.779,1.925,13.6,12.281-.168,9.624-7.141,14.418-13.8,15.055l-9.016.861.478-27.361Zm-.652,21.668c4.166-.4,8.062-2.7,8.169-8.806.107-6.145-3.722-7.591-7.753-7.206l-2.9.277-.28,16,2.768-.264" fill="#fff"></path></g><g id="Groupe_1046" data-name="Groupe 1046"><path id="Trac&#xE9;_2183" data-name="Trac&#xE9; 2183" d="M1494.85,585.325c7.584-.724,13.092,4.269,12.939,13.039-.151,8.656-5.858,15.068-13.443,15.792-7.548.721-13.049-4.62-12.9-13.276C1481.6,592.108,1487.3,586.049,1494.85,585.325Zm-.4,22.8c4.068-.388,7-4.219,7.083-9.165.084-4.79-2.687-8.075-6.788-7.684s-6.963,4.215-7.047,9.005c-.086,4.946,2.688,8.232,6.752,7.844" fill="#fff"></path></g><g id="Groupe_1047" data-name="Groupe 1047"><path id="Trac&#xE9;_2184" data-name="Trac&#xE9; 2184" d="M1533.883,582.334,1533.4,609.7l-6.627.633-9.424-16.964-.1.01-.174,17.88-5.672.542.479-27.361,6.661-.636,9.391,16.929.1-.01.177-17.842Z" fill="#fff"></path></g><g id="Groupe_1048" data-name="Groupe 1048"><path id="Trac&#xE9;_2185" data-name="Trac&#xE9; 2185" d="M1547.46,580.342a10.159,10.159,0,0,1,7.865,2.605l-3.8,4.8a4.957,4.957,0,0,0-4.263-1.947c-1.5.144-3.391.9-3.429,3.064-.032,1.818,1.393,2.259,3.667,2.852,3.259.885,7.468,2.065,7.373,7.513-.11,6.3-4.634,9.547-9.419,10a10.757,10.757,0,0,1-8.984-3.075l3.9-4.772a6.065,6.065,0,0,0,5.175,2.4c1.777-.17,3.364-1.093,3.4-3.295.037-2.086-1.8-2.569-4.954-3.422-3.057-.828-6.132-2.311-6.046-7.257C1538.055,583.748,1542.949,580.773,1547.46,580.342Z" fill="#fff"></path></g><g id="Groupe_1049" data-name="Groupe 1049"><path id="Trac&#xE9;_2186" data-name="Trac&#xE9; 2186" d="M1470.485,622.722l-.263,15.016-3.132.3.26-10.631-.055.005-3.638,10.954-2.248.215-3.171-10.3-.059.006-.109,10.617-3.021.288.263-15.016,4.557-.435,2.849,9.343.077-.007,3.057-9.907Z" fill="#fff"></path></g><g id="Groupe_1050" data-name="Groupe 1050"><path id="Trac&#xE9;_2187" data-name="Trac&#xE9; 2187" d="M1482.145,621.608l-.054,3.076-5.829.557-.049,2.821,5.512-.526-.051,2.9-5.512.526-.055,3.117,6.168-.589-.054,3.1-9.263.884.263-15.016Z" fill="#fff"></path></g><g id="Groupe_1051" data-name="Groupe 1051"><path id="Trac&#xE9;_2188" data-name="Trac&#xE9; 2188" d="M1496.681,620.22l-.263,15.016-3.64.348-5.171-9.309-.055.005-.1,9.812-3.113.3.263-15.016,3.658-.349,5.153,9.29.055-.005.1-9.792Z" fill="#fff"></path></g><g id="Groupe_1052" data-name="Groupe 1052"><path id="Trac&#xE9;_2189" data-name="Trac&#xE9; 2189" d="M1504.129,619.13a5.583,5.583,0,0,1,4.319,1.427l-2.087,2.637a2.713,2.713,0,0,0-2.339-1.07,1.817,1.817,0,0,0-1.883,1.685c-.017,1,.765,1.238,2.014,1.564,1.787.487,4.1,1.132,4.044,4.124a5.411,5.411,0,0,1-5.168,5.491,5.9,5.9,0,0,1-4.93-1.689l2.142-2.618a3.322,3.322,0,0,0,2.839,1.314,1.808,1.808,0,0,0,1.866-1.748c0-.019,0-.039,0-.058.02-1.146-.987-1.411-2.718-1.879-1.677-.455-3.366-1.268-3.318-3.985C1498.969,621,1501.655,619.366,1504.129,619.13Z" fill="#fff"></path></g><g id="Groupe_1053" data-name="Groupe 1053"><path id="Trac&#xE9;_2190" data-name="Trac&#xE9; 2190" d="M1521.75,617.826l-.164,9.356a6.365,6.365,0,0,1-5.824,6.611c-3.489.333-5.62-1.919-5.557-5.524l.163-9.356,3.187-.3-.158,9.057c-.028,1.613.642,3.03,2.44,2.858,1.82-.174,2.52-1.722,2.549-3.335l.158-9.057Z" fill="#fff"></path></g><g id="Groupe_1054" data-name="Groupe 1054"><path id="Trac&#xE9;_2191" data-name="Trac&#xE9; 2191" d="M1533.263,616.727l-.054,3.076-5.832.557-.049,2.822,5.515-.527-.051,2.9-5.515.527-.055,3.118,6.171-.589-.054,3.1-9.263.885.263-15.017Z" fill="#fff"></path></g><g id="Groupe_1055" data-name="Groupe 1055"><path id="Trac&#xE9;_2192" data-name="Trac&#xE9; 2192" d="M1538.945,616.184l-.207,11.857,5.139-.491-.055,3.16-8.364.8.263-15.016Z" fill="#fff"></path></g><g id="Groupe_1056" data-name="Groupe 1056"><path id="Trac&#xE9;_2193" data-name="Trac&#xE9; 2193" d="M1550.3,614.721a5.575,5.575,0,0,1,4.319,1.427l-2.087,2.637a2.713,2.713,0,0,0-2.339-1.07c-.825.078-1.863.5-1.883,1.685-.018,1,.765,1.238,2.014,1.564,1.79.486,4.1,1.132,4.047,4.124a5.412,5.412,0,0,1-5.168,5.49,5.9,5.9,0,0,1-4.933-1.688l2.142-2.618a3.328,3.328,0,0,0,2.842,1.314,1.807,1.807,0,0,0,1.863-1.749v-.057c.02-1.146-.987-1.411-2.718-1.879-1.677-.456-3.366-1.268-3.318-3.985C1545.135,616.587,1547.823,614.957,1550.3,614.721Z" fill="#fff"></path></g></g><g id="Groupe_1058" data-name="Groupe 1058"><path id="Trac&#xE9;_2194" data-name="Trac&#xE9; 2194" d="M1514.079,429.471c1.187.43,5.257,8.116,20.975,13.309,7.071,2.336,20.882-1.292,20.882-1.292l22.969,32.17a51.7,51.7,0,0,1-15.861,3.35c-21.235,1.133-29.594-5.423-29.594-5.423l-5.385-4.878Z" fill="#89a8cf"></path><path id="Trac&#xE9;_2195" data-name="Trac&#xE9; 2195" d="M1523.121,439.335s8.709,5.542,15.168,6.042c5.294.41,16.945-1.644,16.945-1.644L1575,471.989s-15.25,3.819-22.711,2.67c-23.324-3.592-24.134-8.546-24.134-8.546l-1.075-2.084a55.108,55.108,0,0,0,24.49,8.363,53.135,53.135,0,0,0,19.76-2.015L1554.39,445.8s-9.884,1.908-15.719,1.442-15.522-5.6-15.522-5.6Z" fill="#6e86a5"></path><path id="Trac&#xE9;_2196" data-name="Trac&#xE9; 2196" d="M1518.54,440.144c3.111,1.713,9.077,4.462,12.376,8.357,2.255,2.661,6.22,10.327,5.656,13.5-.384,2.16-2.381,4.7-6.672,2.658a70.282,70.282,0,0,1-8.383-4.869Z" fill="#e9e9ea"></path><path id="Trac&#xE9;_2197" data-name="Trac&#xE9; 2197" d="M1523.148,446.664l-.374-1.282,2.113.594.363,1.474a9.8,9.8,0,0,1,2.406,1.679c1.392,1.409,4.014,5.639,1.729,6.3-1.973.572-5.809-1.145-4.308,2.306.719,1.653,3.8,2.8,4.743,1.868a2.079,2.079,0,0,0,.536-1.694l1.94.083s1.1,4.691-3.312,4.607h-.013l.381,1.545-2-.518-.422-1.446a9.27,9.27,0,0,1-5.185-5.02,2.673,2.673,0,0,1,2.71-3.774c1.624.161,3.59.491,3.24-.959a4.739,4.739,0,0,0-3.377-3.388c-1.556-.213-1.913,1.506-1.913,1.506l-2.328-.806s-.339-2.424,1.331-3.049A3.167,3.167,0,0,1,1523.148,446.664Z" fill="#6e86a5"></path><path id="Trac&#xE9;_2198" data-name="Trac&#xE9; 2198" d="M1500.3,394.125l29.549,28.662s-4.89,14.711-4.314,22.7c1.418,19.663,7.954,26.126,7.954,26.126s-7.5-4.184-15.916-15.8a231.765,231.765,0,0,1-20-32.848,36.543,36.543,0,0,1-1.29-11.954C1496.783,404.965,1500.3,394.125,1500.3,394.125Z" fill="#92b2de"></path><path id="Trac&#xE9;_2199" data-name="Trac&#xE9; 2199" d="M1529.695,468.889s-5.643-7.306-6.856-19.663c-.708-7.216,3.982-25.09,3.982-25.09L1501.332,398.2s-2.365,7.968-3.166,12.883a39.15,39.15,0,0,0,.491,14.179l1.958,3.7s-1.421-4.886-.508-14.6a64.415,64.415,0,0,1,2.73-11.24c.07.185,21.371,21.932,21.371,21.932s-3.448,17.11-3.277,22.853a35.33,35.33,0,0,0,5.788,18.521Z" fill="#6e86a5"></path><path id="Trac&#xE9;_2200" data-name="Trac&#xE9; 2200" d="M1521.97,461.374a74.963,74.963,0,0,0-4.3-10.137c-2.725-5.686-7.649-10.7-9.014-10.962-.892-.169-1.171.09-1.257.291,2.845,4.622,6.278,9.863,10.255,15.351C1519.131,457.961,1520.582,459.774,1521.97,461.374Z" fill="#fff"></path><path id="Trac&#xE9;_2201" data-name="Trac&#xE9; 2201" d="M1553.566,462.07c-1.139.791-2.972.123-4.093-1.492s-1.108-3.566.031-4.357,2.971-.123,4.093,1.492S1554.7,461.279,1553.566,462.07Z" fill="#6e86a5"></path><path id="Trac&#xE9;_2202" data-name="Trac&#xE9; 2202" d="M1513.035,429.216c-1.143.993-3.114.594-4.4-.891s-1.409-3.493-.267-4.485,3.114-.593,4.4.891S1514.177,428.229,1513.035,429.216Z" fill="#6e86a5"></path></g><g id="Groupe_1059" data-name="Groupe 1059"><path id="Trac&#xE9;_2203" data-name="Trac&#xE9; 2203" d="M1551.084,295.1s-8.22,8.015-10.331,18.1.583,32.48-2.741,40.029-7.4,14.635-7.4,14.635l38.673,18.738s7.58-17.545,8.364-25.546c1.093-11.139-3.833-25.659-1.284-32.975,3.025-8.681,12.485-24.2,12.485-24.2Z" fill="#92b2de"></path><path id="Trac&#xE9;_2204" data-name="Trac&#xE9; 2204" d="M1552.218,297.674s-6.357,8.238-8.27,17.569-.174,29.893-3.021,36.91-6.291,13.623-6.291,13.623l32.5,16.089a100.9,100.9,0,0,0,7.335-21.121c1.775-8.653-3.056-26.075-1.042-32.932s10.136-22,10.136-22Z" fill="#6e86a5"></path><path id="Trac&#xE9;_2205" data-name="Trac&#xE9; 2205" d="M1570.674,327.2c1.91-8.006,8.991-19.839,8.991-19.839l-25.78-7.029s-5.108,5.574-7.643,15.712c-2.2,8.8-.393,29.5-2.9,36.226s-5.509,13.063-5.509,13.063l27.6,12.119a86.888,86.888,0,0,0,6.412-17.3C1574.439,349.459,1569.1,333.817,1570.674,327.2Z" fill="#92b2de"></path><path id="Trac&#xE9;_2206" data-name="Trac&#xE9; 2206" d="M1557.639,352.118c-5.643,1.612-9.525-.868-10.109-9.809-.671-10.282,3.848-17.58,7.824-18.55s12.572-2.6,13.429,9.758c.57,8.22-4.348,13.312-6.028,15.63A8.9,8.9,0,0,1,1557.639,352.118Z" fill="#fff"></path><path id="Trac&#xE9;_2207" data-name="Trac&#xE9; 2207" d="M1565.04,314.317a2.51,2.51,0,1,1-1.423-3.252c.042.016.083.033.123.052A2.447,2.447,0,0,1,1565.04,314.317Z" fill="#6e86a5"></path><path id="Trac&#xE9;_2208" data-name="Trac&#xE9; 2208" d="M1556.062,364.681a2.51,2.51,0,1,1-1.423-3.252c.042.016.083.033.123.052A2.447,2.447,0,0,1,1556.062,364.681Z" fill="#6e86a5"></path></g><g id="Groupe_1061" data-name="Groupe 1061"><path id="Trac&#xE9;_2209" data-name="Trac&#xE9; 2209" d="M1446.065,303.3c-5.627-2.638-11.34-5.29-15.922-7.736l-7.515-3.973-24.2-8.5,20.187,18.84a93.753,93.753,0,0,0,25.352,6.285,67.608,67.608,0,0,0,16.4.079A116.084,116.084,0,0,1,1446.065,303.3Z" fill="#89a8cf"></path><g id="Groupe_1060" data-name="Groupe 1060"><path id="Trac&#xE9;_2210" data-name="Trac&#xE9; 2210" d="M1440.028,306.941a73.854,73.854,0,0,1-8.929-1.734c-6.623-1.762-11.635-3.563-11.635-3.563s-3.479-2.878-5.248-4.47c-1.593-1.434-5.522-5.366-5.653-5.534l1-.725c.031.041,4.194,3.766,5.686,5.108,1.569,1.413,4.41,3.774,4.99,4.255.8.282,5.291,1.846,11.255,3.432a115.554,115.554,0,0,0,16.837,2.782,107.818,107.818,0,0,1-12.863-5.165c-5.678-2.708-15.42-8.777-15.518-8.838l.82-1.314c.1.06,9.765,6.083,15.364,8.754,4.024,1.919,14.1,6.311,14.2,6.355l3.534,1.539-3.854-.054A94.294,94.294,0,0,1,1440.028,306.941Z" fill="#6e86a5"></path></g><path id="Trac&#xE9;_2211" data-name="Trac&#xE9; 2211" d="M1409.377,291.594a10.984,10.984,0,0,0,6.657,2.443c3.026.072,6.836-.665,5.214-1.849S1409.377,291.594,1409.377,291.594Z" fill="#e9e9ea"></path><path id="Trac&#xE9;_2212" data-name="Trac&#xE9; 2212" d="M1353.71,285.09s11.679-5.243,16.824-6.122c15.129-2.577,28.13,1.087,29.465,1.268,4.31.583,30.266,15.39,30.266,15.39s-12.316-7.388-30.127-1.175c-8.935,3.117-17.067,6.849-17.067,6.849Z" fill="#92b2de"></path><path id="Trac&#xE9;_2213" data-name="Trac&#xE9; 2213" d="M1421.5,290.752c-1.385-.762-1.844-1.037-3.358-1.853-3.386-.162-9.5-.513-15.753,1.007s-16.672,5.862-18.894,6.8l-22.8-11.669c1.28-.559,3.2-1.339,5.5-2.091a59.645,59.645,0,0,1,15.8-3.074,87.37,87.37,0,0,1,23.484,2.641,9.081,9.081,0,0,0-2.359-1.22,95.6,95.6,0,0,0-21.364-2.671,54.409,54.409,0,0,0-23.642,5.531l-1.648.838,26.96,13.8.407-.174c.122-.052,12.287-5.242,19.006-6.875a49.6,49.6,0,0,1,14.917-1.447A32.043,32.043,0,0,1,1421.5,290.752Z" fill="#6e86a5"></path><path id="Trac&#xE9;_2214" data-name="Trac&#xE9; 2214" d="M1404.191,281.833c-2.454-.38-5.522-.506-2.929,2.062,4.065,4.026,13.625,5.8,16.1,5.986a23.66,23.66,0,0,1,3.367.407c-.189-.025-3.736-1.951-7.777-4.136S1404.191,281.833,1404.191,281.833Z" fill="#fff"></path><path id="Trac&#xE9;_2215" data-name="Trac&#xE9; 2215" d="M1384.158,285.067c1.381.844,2.171,2.067,1.765,2.731s-1.855.518-3.235-.326-2.169-2.067-1.769-2.731S1382.778,284.223,1384.158,285.067Z" fill="#6e86a5"></path><path id="Trac&#xE9;_2216" data-name="Trac&#xE9; 2216" d="M1426.477,299.064c1.531.525,2.652,1.3,2.505,1.727s-1.507.351-3.038-.174-2.652-1.3-2.505-1.727S1424.944,298.542,1426.477,299.064Z" fill="#6e86a5"></path></g><g id="Groupe_1062" data-name="Groupe 1062"><path id="Trac&#xE9;_2217" data-name="Trac&#xE9; 2217" d="M1558.212,349.95l-1.317-.44-1.22-4.171c-.167-.533-.383-.919-.788-1.054-.47-.157-.943.162-1.16.812a1.219,1.219,0,0,0,.6,1.563l-.867,1.9c-1.28-.645-1.6-2.335-1.038-4.027.532-1.6,1.7-2.923,3.09-2.458.95.317,1.263,1.226,1.543,2.206l.7,2.47,1.185-3.544,1.373.459Z" fill="#6e86a5"></path><path id="Trac&#xE9;_2218" data-name="Trac&#xE9; 2218" d="M1561.835,338.77c-.641,2.519-2.558,3.059-4.49,2.567s-3.32-1.872-2.68-4.391,2.523-3.041,4.445-2.552S1562.472,336.263,1561.835,338.77Zm-5.8-1.477c-.284,1.115,1.008,1.671,1.863,1.888.875.223,2.275.352,2.558-.764s-1.014-1.645-1.889-1.868c-.856-.217-2.252-.359-2.533.744Z" fill="#6e86a5"></path><path id="Trac&#xE9;_2219" data-name="Trac&#xE9; 2219" d="M1563.353,326.307a6.016,6.016,0,0,1,.094,2.307c-.288,2.244-1.454,3.464-2.83,3.744l-.151,1.18-.958-.566.074-.577a3.344,3.344,0,0,1-.346-.031,1.676,1.676,0,0,1-.349-.084l-.128,1-.964-.593.094-.731c-1.365-.736-2.012-2.474-1.744-4.565a7.1,7.1,0,0,1,.563-2.052l1.159.787a4.641,4.641,0,0,0-.422,1.5,2.309,2.309,0,0,0,.717,2.2l.436-3.4.965.58-.424,3.309a1.723,1.723,0,0,0,.361.072,3.171,3.171,0,0,0,.336.03l.4-3.091.957.566-.306,2.386a2.284,2.284,0,0,0,1.255-1.99,4.047,4.047,0,0,0-.1-1.668Z" fill="#6e86a5"></path></g><path id="Trac&#xE9;_2220" data-name="Trac&#xE9; 2220" d="M1373.98,436.608l-17.884,10.44.434-47.819a16.543,16.543,0,0,1,5.707,3.8C1374.958,416.486,1373.98,436.608,1373.98,436.608Z" fill="#010101" opacity="0.05" style="isolation: isolate"></path><g id="Groupe_1068" data-name="Groupe 1068"><g id="Groupe_1063" data-name="Groupe 1063"><path id="Trac&#xE9;_2221" data-name="Trac&#xE9; 2221" d="M1276.19,374.267s1.991,10.161,11.788,20.669c5.712,6.126,26.293,1.749,35.941,18.282,8.472,14.519,7.035,35.9,7.035,35.9l47.763-27.875s.981-20.123-11.737-33.576c-8.614-9.111-28.323-4.533-39.381-15.5-5.013-4.97-11.811-14.8-11.811-14.8Z" fill="#92b2de"></path><path id="Trac&#xE9;_2222" data-name="Trac&#xE9; 2222" d="M1279.7,376.041s2.472,8.426,11.261,16.786c5.158,4.906,28.228,1.829,36.47,15.81,7.238,12.278,7.474,33.145,7.474,33.145l40.8-23.352s-1.25-18.85-12.134-30.215c-7.371-7.7-28.141-4.357-37.606-13.618-4.29-4.2-10.436-14.369-10.436-14.369Z" fill="#6e86a5"></path><path id="Trac&#xE9;_2223" data-name="Trac&#xE9; 2223" d="M1283.059,377.611s1.759,5.986,10.137,13.372c7.585,6.687,28.537,1.206,36.164,15.307,6.7,12.384,8.006,30.086,8.006,30.086l34.894-19.968s-.247-14.592-10.164-26.146c-6.717-7.825-30.558-5.606-38.772-15.382a98.034,98.034,0,0,1-8.076-11.9Z" fill="#92b2de"></path><path id="Trac&#xE9;_2224" data-name="Trac&#xE9; 2224" d="M1322.244,398.069c-3.031-2.443-7.043-6.825-2.231-11.926,5.522-5.855,11.174-5.519,16.9-3.171s11.5,8.6,5.156,14.9-11.553,5.416-14.207,4.056A36.443,36.443,0,0,1,1322.244,398.069Z" fill="#fff"></path><path id="Trac&#xE9;_2225" data-name="Trac&#xE9; 2225" d="M1313.161,377.917a3.322,3.322,0,1,1-4.493-1.371,3.366,3.366,0,0,1,.493-.213A3.064,3.064,0,0,1,1313.161,377.917Z" fill="#6e86a5"></path><path id="Trac&#xE9;_2226" data-name="Trac&#xE9; 2226" d="M1357.528,410.071a3.281,3.281,0,1,1-4.2-2.15,3.334,3.334,0,0,1,4.2,2.147Z" fill="#6e86a5"></path></g><g id="Groupe_1067" data-name="Groupe 1067"><g id="Groupe_1064" data-name="Groupe 1064"><path id="Trac&#xE9;_2227" data-name="Trac&#xE9; 2227" d="M1341.828,394.065a3.1,3.1,0,0,1,.976,1.171l-1.672.418a2.019,2.019,0,0,0-.7-.862,2.755,2.755,0,0,0-2.3-.425l2.086,1.628-1.337.376-2.03-1.584a3.463,3.463,0,0,0-.394.2c-.092.052-.236.131-.341.2l1.9,1.481-1.32.378-1.464-1.142c-.44.434-.353,1.091.276,1.582a3.172,3.172,0,0,0,1.318.6l-1.006.949a4.594,4.594,0,0,1-1.782-.857c-1.377-1.074-1.173-2.293-.081-3.273l-.724-.565,1.32-.378.354.277c.115-.076.235-.143.35-.207a3.594,3.594,0,0,1,.391-.186l-.614-.479,1.344-.371.45.351A5.5,5.5,0,0,1,1341.828,394.065Z" fill="#6e86a5"></path></g><g id="Groupe_1065" data-name="Groupe 1065"><path id="Trac&#xE9;_2228" data-name="Trac&#xE9; 2228" d="M1335.751,389.322c1.574,1.228.428,2.669-1.614,3.808s-4.428,1.669-6,.441-.41-2.7,1.644-3.842S1334.171,388.089,1335.751,389.322Zm-6.146,3.429c.694.542,2.25-.159,3.178-.677.909-.507,2.211-1.4,1.518-1.943s-2.26.147-3.169.654c-.929.518-2.225,1.421-1.527,1.966" fill="#6e86a5"></path></g><g id="Groupe_1066" data-name="Groupe 1066"><path id="Trac&#xE9;_2229" data-name="Trac&#xE9; 2229" d="M1330.659,385.351c1.023.8,1.311,1.965-.2,2.809a5.523,5.523,0,0,1-3.2.48l-2.783-.174,2.275,1.775-1.49.831-4.03-3.144,1.43-.8,4.726.271a2.9,2.9,0,0,0,1.567-.264c.51-.285.593-.7.176-1.027a1.9,1.9,0,0,0-1.881,0l-1.042-1.114A4.448,4.448,0,0,1,1330.659,385.351Z" fill="#6e86a5"></path></g></g></g></g></svg>