<svg xmlns="http://www.w3.org/2000/svg" viewBox="0 0 1200 30" preserveAspectRatio="none">
  <path d="M0,0V11.57c47.79,5.55,103.59,8.02,158,7,70.36-1.79,136.33-8.33,206.8-9.38C438.64,8.11,512.34,13.42,583,18.01c69.27,4.5,138.3,6.22,209.4,3.27,36.15-1.5,69.85-4.46,104.45-7.34C989.49,6.25,1113-3.57,1200,13.12V0Z" opacity="1" fill="#1e88e5"></path>
  <path d="M0,0V3.95C13,9.23,27.64,14.21,47.69,18.01,99.41,27.82,165,27.75,224.58,22.89c31.15-2.54,60.09-6.52,89.67-9.95,40.92-4.75,84.73-11.5,130.83-12.42,36.26-.71,70.9,2.36,98.6,7.89,31.77,6.35,62.32,15.5,103.63,18.25,40.44,2.7,81.35-1.67,119.13-6.07s75.16-9.75,116.92-10.76c59.73-1.46,113.28,5.72,168.9,9.71,30.2,2.17,59,1.15,87.09-1.88,22.43-2.72,48-6.73,60.65-12.31V0Z" opacity="0.5" fill="#1e88e5"></path>
  <path d="M0,0V1.41C149.93,14.75,314.09,17.83,475.83,10.64c43-1.91,84.23-5.03,127.61-6.61,59-2.16,112.48,3.06,165.56,8.85C827.93,19.31,886,23.81,951.2,22.5c86.53-1.75,172.46-11.43,248.8-21.2V0Z" fill="#bd8c65"></path>
</svg>
